# xmcd
#
# Track frame offsets:
# 150
# 6667
# 9756
# 16471
# 27782
# 33681
# 74379
# 103856
# 131776
# 160020
# 169112
# 196316
# 201163
# 207945
# 216827
# 223960
#
# Disc length: 3086 seconds
#
#
# Revision: 1
# Processed by: cddbd v1.5.2PL0 Copyright (c) Steve Scherf et al.
# Submitted via: FreeRIP 2.942 
#
DISCID=eb0c0c10
DTITLE=Panama Jazz-Ensemble - Inspektor Maus
DYEAR=2008
DGENRE=Jazz
TTITLE0=Vorspiel
TTITLE1=Freddy Fettmaus
TTITLE2=Inspektor Maus Bolero
TTITLE3=Am Tatort
TTITLE4=Inspektor Maus Song Nr. 1
TTITLE5=Im Gorgonzola Club
TTITLE6=Inspektor Maus Song Nr. 2 - Im Fischlager
TTITLE7=Inspektor Maus Song Nr. 3 - Der Plan der Rockfours
TTITLE8=Inspektor Maus Song Nr. 4 - Bootsfahrt
TTITLE9=Flucht mit dem Lieferwagen
TTITLE10=Wieder im Gorgonzola Club
TTITLE11=Inspektor Maus Song Nr. 5 - Überführt
TTITLE12=Tränen, so groß wie Glasmurmeln
TTITLE13=Das Urteil
TTITLE14=Sam Watson greift ein
TTITLE15=Inspektor Maus Song Nr. 6 - Coda
EXTD=Franz-David Baumann\nYEAR: 2008
EXTT0=
EXTT1=
EXTT2=
EXTT3=
EXTT4=
EXTT5=
EXTT6=
EXTT7=
EXTT8=
EXTT9=
EXTT10=
EXTT11=
EXTT12=
EXTT13=
EXTT14=
EXTT15=
PLAYORDER=
